<svg width="20" height="18" viewBox="0 0 20 18" fill="none" xmlns="http://www.w3.org/2000/svg">
<path d="M10.0045 3.63802C12.5148 3.63802 14.5521 5.67531 14.5521 8.18554C14.5521 8.77672 14.4338 9.33152 14.2246 9.84993L16.8804 12.5057C18.2538 11.3597 19.3361 9.87722 20 8.18554C18.4266 4.19282 14.543 1.36426 9.99545 1.36426C8.72215 1.36426 7.50341 1.59163 6.37563 2.00091L8.34016 3.96544C8.85857 3.75625 9.41337 3.63802 10.0045 3.63802ZM0.909504 1.15507L2.98317 3.22874L3.40155 3.64711C1.89177 4.82037 0.709413 6.38472 0 8.18554C1.57344 12.1783 5.45703 15.0068 10.0045 15.0068C11.4143 15.0068 12.7603 14.734 13.9882 14.2428L14.3702 14.6248L17.035 17.2806L18.1901 16.1255L2.06457 0L0.909504 1.15507ZM5.93906 6.18463L7.3488 7.59436C7.30332 7.78536 7.27603 7.98545 7.27603 8.18554C7.27603 9.69532 8.49477 10.9141 10.0045 10.9141C10.2046 10.9141 10.4047 10.8868 10.5957 10.8413L12.0055 12.251C11.3961 12.5512 10.7231 12.7331 10.0045 12.7331C7.49432 12.7331 5.45703 10.6958 5.45703 8.18554C5.45703 7.46703 5.63893 6.794 5.93906 6.18463V6.18463ZM9.85903 5.47522L12.724 8.34016L12.7422 8.19463C12.7422 6.68486 11.5234 5.46612 10.0136 5.46612L9.85903 5.47522Z" fill="#333535"/>
</svg>
