<svg viewBox="0 0 151 42" fill="none" xmlns="http://www.w3.org/2000/svg">
<path d="M4.02333 26.2851V32.4183C4.02333 33.0024 3.73595 33.2945 3.44857 33.8786C3.16119 34.1707 2.58643 34.4627 2.01167 34.4627C1.4369 34.4627 1.14952 34.1707 0.574761 33.8786C0.28738 33.5866 0 33.0024 0 32.7104V17.8155C0 15.479 0.862141 13.4346 2.58643 11.6823C4.31071 9.92994 6.32238 9.05377 8.62143 9.05377C10.9205 9.05377 12.9321 9.92994 14.6564 11.6823C16.3807 13.4346 17.2429 15.479 17.2429 17.8155C17.2429 20.1519 16.3807 22.1963 14.6564 23.9487C12.9321 25.701 10.9205 26.5772 8.62143 26.5772H4.02333V26.2851ZM4.02333 22.4884H8.62143C9.77095 22.4884 10.9205 21.9043 11.7826 21.0281C12.6448 20.1519 13.2195 18.9837 13.2195 17.8155C13.2195 16.6473 12.6448 15.479 11.7826 14.6029C10.9205 13.7267 9.77095 13.1426 8.62143 13.1426C7.4719 13.1426 6.32238 13.7267 5.46024 14.6029C4.59809 15.479 4.02333 16.6473 4.02333 17.8155V22.4884Z" fill="white"/>
<path d="M35.0605 18.3996C36.7848 20.152 37.6469 22.4884 37.6469 25.1169V32.7104C37.6469 33.2945 37.3595 33.5866 37.0722 34.1707C36.7848 34.4627 36.21 34.7548 35.6352 34.7548C35.0605 34.7548 34.7731 34.4627 34.1983 34.1707C33.911 33.8786 33.6236 33.2945 33.6236 32.7104C32.4741 34.1707 30.7498 34.7548 28.1633 34.7548C25.5769 34.7548 23.2779 33.8786 21.5536 32.1263C19.8293 30.374 18.9672 28.0375 18.9672 25.409C18.9672 22.7805 19.8293 20.444 21.5536 18.6917C23.2779 16.9393 25.5769 16.0632 28.1633 16.0632C31.0372 15.7711 33.3362 16.6473 35.0605 18.3996ZM24.7148 21.3202C23.5653 22.4884 23.2779 23.6566 23.2779 25.1169C23.2779 26.5772 23.8526 28.0375 24.7148 28.9137C25.8643 30.0819 27.0138 30.374 28.4507 30.374C29.8876 30.374 31.3245 29.7898 32.1867 28.9137C33.3362 27.7454 33.6236 26.5772 33.6236 25.1169C33.6236 23.6566 33.0488 22.4884 32.1867 21.3202C31.0372 20.152 29.8876 19.8599 28.4507 19.8599C27.0138 19.5678 25.8643 20.152 24.7148 21.3202Z" fill="white"/>
<path d="M46.843 26.5772C46.843 27.7454 47.1304 28.6216 47.9926 29.2057C48.8547 30.0819 49.7168 30.3739 50.579 30.3739C51.4411 30.3739 52.5907 30.0819 53.1654 29.2057C54.0276 28.3295 54.3149 27.4533 54.3149 26.5772V17.5234C54.3149 16.9393 54.6023 16.6472 54.8897 16.0631C55.1771 15.7711 55.7518 15.479 56.3266 15.479C56.9014 15.479 57.1887 15.7711 57.7635 16.0631C58.0509 16.3552 58.3383 16.9393 58.3383 17.5234V26.5772C58.3383 27.7454 58.6256 28.6216 59.4878 29.2057C60.3499 30.0819 61.2121 30.3739 62.0742 30.3739C63.2237 30.3739 64.0859 30.0819 64.6606 29.2057C65.5228 28.3295 65.8102 27.4533 65.8102 26.5772V17.5234C65.8102 16.9393 66.0975 16.6472 66.3849 16.0631C66.6723 15.7711 67.2471 15.479 67.8218 15.479C68.3966 15.479 68.684 15.7711 69.2587 16.0631C69.5461 16.3552 69.8335 16.9393 69.8335 17.5234V26.5772C69.8335 28.6216 68.9714 30.666 67.5345 32.1263C66.0975 33.5865 64.0859 34.4627 62.0742 34.4627C59.4878 34.4627 57.4761 33.5865 56.3266 31.8342C54.8897 33.5865 53.1654 34.4627 50.579 34.4627C48.5673 34.4627 46.5557 33.5865 45.1188 32.1263C43.6818 30.666 42.8197 28.6216 42.8197 26.5772V17.5234C42.8197 16.9393 43.1071 16.6472 43.3945 16.0631C43.6818 15.479 44.2566 15.479 44.8314 15.479C45.4061 15.479 45.6935 15.7711 46.2683 16.0631C46.843 16.3552 46.843 16.9393 46.843 17.5234V26.5772Z" fill="white"/>
<path d="M76.7307 41.18C76.156 41.18 75.8686 40.888 75.2938 40.5959C75.0064 40.3039 74.7191 39.7197 74.7191 39.1356V24.8248C74.7191 22.1963 75.5812 19.8599 77.5929 18.1075C79.3171 16.3552 81.6162 15.479 84.2026 15.479C86.789 15.479 89.0881 16.3552 90.8124 18.1075C92.5367 19.8599 93.3988 22.1963 93.3988 24.8248C93.3988 27.4533 92.5367 29.7898 90.8124 31.5421C89.0881 33.2945 86.789 34.1707 84.2026 34.1707C81.9036 34.1707 80.1793 33.5865 78.7424 32.4183V38.8436C78.7424 39.4277 78.455 39.7197 78.1676 40.3039C77.5929 41.18 77.3055 41.18 76.7307 41.18ZM87.6512 28.9136C88.8007 27.7454 89.0881 26.5772 89.0881 25.1169C89.0881 23.6566 88.5133 22.1963 87.6512 21.3201C86.5017 20.1519 85.3521 19.8599 83.9152 19.8599C82.4783 19.8599 81.0414 20.444 80.1793 21.3201C79.0298 22.4884 78.7424 23.6566 78.7424 25.1169C78.7424 26.5772 79.3172 27.7454 80.1793 28.9136C81.3288 30.0819 82.4783 30.3739 83.9152 30.3739C85.3521 30.3739 86.789 30.0819 87.6512 28.9136Z" fill="white"/>
<path d="M105.756 15.7711C106.331 15.7711 106.618 16.0631 107.193 16.3552C107.48 16.6472 107.768 17.2313 107.768 17.8155C107.768 18.3996 107.48 18.6916 107.193 19.2757C106.906 19.5678 106.331 19.8599 105.756 19.8599H104.894C104.032 19.8599 103.17 20.1519 102.595 20.736C102.02 21.3201 101.733 22.1963 101.733 23.0725V32.7104C101.733 33.2945 101.445 33.5865 101.158 34.1706C100.871 34.4627 100.296 34.7548 99.7212 34.7548C99.1464 34.7548 98.859 34.4627 98.2843 34.1706C97.9969 33.5865 97.7095 33.0024 97.7095 32.7104V23.0725C97.7095 21.0281 98.2843 19.2757 99.7212 18.1075C101.158 16.6472 102.882 16.0631 104.607 16.0631H105.756V15.7711Z" fill="white"/>
<path d="M113.803 15.7711C113.228 15.7711 112.653 16.0631 112.366 16.3552C112.079 16.6472 111.791 17.2313 111.791 17.8155V32.7104C111.791 33.2945 112.079 33.5865 112.366 34.1706C112.653 34.4627 113.228 34.7548 113.803 34.7548C114.378 34.7548 114.665 34.4627 115.24 34.1706C115.527 33.8786 115.814 33.2945 115.814 32.7104V17.8155C115.814 17.2313 115.527 16.9393 115.24 16.3552C114.665 15.7711 114.09 15.7711 113.803 15.7711Z" fill="white"/>
<path d="M125.011 32.7104C125.011 33.2945 124.723 33.5865 124.436 34.1706C124.149 34.4627 123.574 34.7548 122.999 34.7548C122.424 34.7548 122.137 34.4627 121.562 34.1706C121.275 33.8786 120.987 33.2945 120.987 32.7104V23.6566C120.987 21.6122 121.85 19.5678 123.286 18.1075C124.723 16.6472 126.735 15.7711 128.747 15.7711C130.758 15.7711 132.77 16.6472 134.207 18.1075C135.644 19.5678 136.506 21.6122 136.506 23.6566V32.7104C136.506 33.2945 136.219 33.5865 135.931 34.1706C135.644 34.4627 135.069 34.7548 134.494 34.7548C133.92 34.7548 133.632 34.4627 133.057 34.1706C132.77 33.8786 132.483 33.2945 132.483 32.7104V23.6566C132.483 22.4884 132.195 21.6122 131.333 21.0281C130.471 20.1519 129.609 19.8599 128.747 19.8599C127.597 19.8599 126.735 20.1519 125.873 21.0281C125.011 21.9043 124.723 22.7804 124.723 23.6566V32.7104H125.011Z" fill="white"/>
<path d="M143.69 9.05377C144.265 9.05377 144.553 9.34583 145.127 9.63789C145.415 9.92994 145.702 10.5141 145.702 11.0982V15.7711H148.001C148.576 15.7711 148.863 16.0631 149.438 16.3552C149.725 16.6473 150.013 17.2314 150.013 17.8155C150.013 18.3996 149.725 18.6916 149.438 19.2758C149.151 19.5678 148.576 19.8599 148.001 19.8599H145.702V29.4978C145.702 29.7898 145.702 30.0819 145.99 30.3739C146.277 30.666 146.564 30.666 146.852 30.666H148.001C148.576 30.666 148.863 30.958 149.438 31.2501C149.725 31.5422 150.013 32.1263 150.013 32.7104C150.013 33.2945 149.725 33.5866 149.438 34.1707C149.151 34.4627 148.576 34.7548 148.001 34.7548H146.564C145.127 34.7548 143.978 34.1707 142.828 33.2945C141.966 32.4183 141.391 30.958 141.391 29.7898V11.3902C141.391 10.8061 141.679 10.5141 141.966 9.92994C142.541 9.05377 143.116 9.05377 143.69 9.05377Z" fill="white"/>
<path d="M113.515 5.25702C113.515 5.25702 109.205 5.25702 108.055 9.63788C107.193 12.5584 109.492 13.4346 109.492 13.4346C109.492 13.4346 110.642 14.0187 111.791 13.4346C112.941 12.8505 113.803 12.8505 113.803 12.8505C113.803 12.8505 114.665 12.8505 115.814 13.4346C116.677 14.0187 118.114 13.4346 118.114 13.4346C118.114 13.4346 120.413 12.5584 119.55 9.63788C117.826 4.96497 113.515 5.25702 113.515 5.25702Z" fill="white"/>
<path d="M106.906 8.1776C107.858 8.1776 108.63 7.2623 108.63 6.1332C108.63 5.00411 107.858 4.08881 106.906 4.08881C105.953 4.08881 105.181 5.00411 105.181 6.1332C105.181 7.2623 105.953 8.1776 106.906 8.1776Z" fill="white"/>
<path d="M110.067 4.96496C110.929 4.96496 111.791 4.08879 111.791 2.92056C111.791 1.75233 110.929 0.87616 110.067 0.87616C109.205 0.87616 108.343 1.75233 108.343 2.92056C108.343 4.08879 109.205 4.96496 110.067 4.96496Z" fill="white"/>
<path d="M113.803 4.0888C114.665 4.0888 115.527 3.21263 115.527 2.0444C115.527 0.87617 114.665 0 113.803 0C112.941 0 112.079 0.87617 112.079 2.0444C112.366 3.21263 112.941 4.0888 113.803 4.0888Z" fill="white"/>
<path d="M117.826 5.84118C118.778 5.84118 119.55 4.92587 119.55 3.79678C119.55 2.66769 118.778 1.75238 117.826 1.75238C116.874 1.75238 116.102 2.66769 116.102 3.79678C116.102 4.92587 116.874 5.84118 117.826 5.84118Z" fill="white"/>
<path d="M120.7 5.25702C119.838 5.25702 118.976 6.13319 118.976 7.30142C118.976 8.46965 119.838 9.34582 120.7 9.34582C121.562 9.34582 122.424 8.46965 122.424 7.30142C122.137 6.42525 121.562 5.25702 120.7 5.25702Z" fill="white"/>
</svg>
